<svg width="86" height="84" viewBox="0 0 86 84" fill="none" xmlns="http://www.w3.org/2000/svg">
<path d="M65.5989 31.2693C66.5761 30.2939 66.5775 28.711 65.602 27.7338C64.6266 26.7566 63.0436 26.7552 62.0665 27.7307L40.2092 49.5494L30.1838 39.5239C29.2075 38.5476 27.6246 38.5476 26.6482 39.5239C25.6719 40.5002 25.6719 42.0831 26.6482 43.0594L38.4399 54.8511C39.4156 55.8268 40.9973 55.8275 41.9739 54.8527L65.5989 31.2693Z" fill="#ABC8FD"/>
<path fill-rule="evenodd" clip-rule="evenodd" d="M42.9988 83.6667C58.6388 83.6667 68.7557 71.6374 74.0006 52.6886C80.5645 51.638 85.0835 45.02 85.0835 37.8333C85.0835 34.1273 84.3999 30.4972 82.715 27.7034C81.2935 25.3464 79.1629 23.6206 76.365 23.0433C72.5865 5.56167 57.1993 0.333374 42.9988 0.333374C28.7981 0.333374 13.4108 5.56174 9.6325 23.0437C6.83562 23.6214 4.70567 25.3469 3.28451 27.7034C1.59964 30.4972 0.916016 34.1273 0.916016 37.8333C0.916016 45.0192 5.43411 51.6367 11.9969 52.6883C17.2417 71.6373 27.3586 83.6667 42.9988 83.6667ZM71.4001 41.178C69.3857 53.2648 65.8522 62.7973 61.0177 69.1935C56.3215 75.4067 50.4327 78.6667 42.9988 78.6667C35.5648 78.6667 29.676 75.4067 24.9798 69.1935C20.1453 62.7973 16.6119 53.2648 14.5974 41.178C12.0406 25.837 15.653 17.3107 20.796 12.4819C26.1988 7.40925 34.4101 5.33337 42.9988 5.33337C51.5875 5.33337 59.7988 7.40925 65.2016 12.4819C70.3446 17.3107 73.957 25.837 71.4001 41.178ZM76.3321 42C76.0515 43.6839 75.7409 45.3299 75.4002 46.9355C78.0309 45.4304 80.0835 42.1352 80.0835 37.8333C80.0835 34.6358 79.4769 32.016 78.4334 30.2856C78.0602 29.6669 77.635 29.1608 77.1446 28.7724C77.394 32.6734 77.1545 37.0654 76.3321 42ZM8.85283 28.774C8.36332 29.1622 7.93875 29.6678 7.56613 30.2856C6.52257 32.016 5.91602 34.6358 5.91602 37.8333C5.91602 42.1339 7.96743 45.4285 10.5971 46.9343C10.2564 45.329 9.946 43.6834 9.66544 42C8.84312 37.0661 8.60365 32.6747 8.85283 28.774Z" fill="#ABC8FD"/>
</svg>
