<svg width="18" height="17" viewBox="0 0 18 17" fill="none" xmlns="http://www.w3.org/2000/svg">
<path d="M15.92 1.8474C15.72 1.2574 15.16 0.837402 14.5 0.837402H3.5C2.84 0.837402 2.29 1.2574 2.08 1.8474L0 7.8374V15.8374C0 16.3874 0.45 16.8374 1 16.8374H2C2.55 16.8374 3 16.3874 3 15.8374V14.8374H15V15.8374C15 16.3874 15.45 16.8374 16 16.8374H17C17.55 16.8374 18 16.3874 18 15.8374V7.8374L15.92 1.8474ZM3.85 2.8374H14.14L15.18 5.8374H2.81L3.85 2.8374ZM16 12.8374H2V8.1774L2.12 7.8374H15.89L16 8.1774V12.8374Z" fill="#7E848E"/>
</svg>
