<svg width="18" height="23" viewBox="0 0 18 23" fill="none" xmlns="http://www.w3.org/2000/svg">
<path d="M16 13.8374V17.8374H14V13.8374H16ZM4 13.8374V17.8374H3C2.45 17.8374 2 17.3874 2 16.8374V13.8374H4ZM9 0.837402C4.03 0.837402 0 4.8674 0 9.8374V16.8374C0 18.4974 1.34 19.8374 3 19.8374H6V11.8374H2V9.8374C2 5.9674 5.13 2.8374 9 2.8374C12.87 2.8374 16 5.9674 16 9.8374V11.8374H12V19.8374H16V20.8374H9V22.8374H15C16.66 22.8374 18 21.4974 18 19.8374V9.8374C18 4.8674 13.97 0.837402 9 0.837402Z" fill="#7E848E"/>
</svg>
