<svg width="22" height="22" viewBox="0 0 22 22" fill="none" xmlns="http://www.w3.org/2000/svg">
<path d="M16.79 21.5874H5.21C2.47 21.5874 0.25 19.3574 0.25 16.6174V9.20738C0.25 7.84738 1.09 6.13738 2.17 5.29738L7.56 1.09738C9.18 -0.162624 11.77 -0.222624 13.45 0.957376L19.63 5.28738C20.82 6.11738 21.75 7.89738 21.75 9.34738V16.6274C21.75 19.3574 19.53 21.5874 16.79 21.5874ZM8.48 2.27738L3.09 6.47738C2.38 7.03738 1.75 8.30738 1.75 9.20738V16.6174C1.75 18.5274 3.3 20.0874 5.21 20.0874H16.79C18.7 20.0874 20.25 18.5374 20.25 16.6274V9.34738C20.25 8.38738 19.56 7.05738 18.77 6.51738L12.59 2.18738C11.45 1.38738 9.57 1.42738 8.48 2.27738Z" fill="#7E848E"/>
<path d="M11 17.5874C10.59 17.5874 10.25 17.2474 10.25 16.8374V13.8374C10.25 13.4274 10.59 13.0874 11 13.0874C11.41 13.0874 11.75 13.4274 11.75 13.8374V16.8374C11.75 17.2474 11.41 17.5874 11 17.5874Z" fill="#7E848E"/>
</svg>
