<svg width="16" height="23" viewBox="0 0 16 23" fill="none" xmlns="http://www.w3.org/2000/svg">
<path d="M8 3.8374V0.837402L4 4.8374L8 8.8374V5.8374C11.31 5.8374 14 8.5274 14 11.8374C14 12.8474 13.75 13.8074 13.3 14.6374L14.76 16.0974C15.54 14.8674 16 13.4074 16 11.8374C16 7.4174 12.42 3.8374 8 3.8374ZM8 17.8374C4.69 17.8374 2 15.1474 2 11.8374C2 10.8274 2.25 9.8674 2.7 9.0374L1.24 7.5774C0.46 8.8074 0 10.2674 0 11.8374C0 16.2574 3.58 19.8374 8 19.8374V22.8374L12 18.8374L8 14.8374V17.8374Z" fill="#7E848E"/>
</svg>
