<svg width="22" height="20" viewBox="0 0 22 20" fill="none" xmlns="http://www.w3.org/2000/svg">
<path d="M19 7.8374V5.8374C19 4.7374 18.1 3.8374 17 3.8374H14C14 2.1774 12.66 0.837402 11 0.837402C9.34 0.837402 8 2.1774 8 3.8374H5C3.9 3.8374 3 4.7374 3 5.8374V7.8374C1.34 7.8374 0 9.1774 0 10.8374C0 12.4974 1.34 13.8374 3 13.8374V17.8374C3 18.9374 3.9 19.8374 5 19.8374H17C18.1 19.8374 19 18.9374 19 17.8374V13.8374C20.66 13.8374 22 12.4974 22 10.8374C22 9.1774 20.66 7.8374 19 7.8374ZM17 17.8374H5V5.8374H17V17.8374ZM8 11.8374C7.17 11.8374 6.5 11.1674 6.5 10.3374C6.5 9.5074 7.17 8.8374 8 8.8374C8.83 8.8374 9.5 9.5074 9.5 10.3374C9.5 11.1674 8.83 11.8374 8 11.8374ZM15.5 10.3374C15.5 11.1674 14.83 11.8374 14 11.8374C13.17 11.8374 12.5 11.1674 12.5 10.3374C12.5 9.5074 13.17 8.8374 14 8.8374C14.83 8.8374 15.5 9.5074 15.5 10.3374ZM7 13.8374H15V15.8374H7V13.8374Z" fill="#7E848E"/>
</svg>
