<svg width="22" height="22" viewBox="0 0 22 22" fill="none" xmlns="http://www.w3.org/2000/svg">
<path d="M14 21.5874H8C2.57 21.5874 0.25 19.2674 0.25 13.8374V7.8374C0.25 2.4074 2.57 0.0874023 8 0.0874023H14C19.43 0.0874023 21.75 2.4074 21.75 7.8374V13.8374C21.75 19.2674 19.43 21.5874 14 21.5874ZM8 1.5874C3.39 1.5874 1.75 3.2274 1.75 7.8374V13.8374C1.75 18.4474 3.39 20.0874 8 20.0874H14C18.61 20.0874 20.25 18.4474 20.25 13.8374V7.8374C20.25 3.2274 18.61 1.5874 14 1.5874H8Z" fill="#7E848E"/>
<path d="M6.33 14.0774C6.17 14.0774 6.01 14.0274 5.87 13.9174C5.54 13.6674 5.48 13.1974 5.73 12.8674L8.11 9.7774C8.4 9.4074 8.81 9.1674 9.28 9.1074C9.74 9.0474 10.21 9.1774 10.58 9.4674L12.41 10.9074C12.48 10.9674 12.55 10.9674 12.6 10.9574C12.64 10.9574 12.71 10.9374 12.77 10.8574L15.08 7.8774C15.33 7.5474 15.81 7.4874 16.13 7.7474C16.46 7.9974 16.52 8.4674 16.26 8.7974L13.95 11.7774C13.66 12.1474 13.25 12.3874 12.78 12.4374C12.31 12.4974 11.85 12.3674 11.48 12.0774L9.65 10.6374C9.58 10.5774 9.5 10.5774 9.46 10.5874C9.42 10.5874 9.35 10.6074 9.29 10.6874L6.91 13.7774C6.78 13.9774 6.56 14.0774 6.33 14.0774Z" fill="#7E848E"/>
</svg>
