<svg width="104" height="57" viewBox="0 0 104 57" fill="none" xmlns="http://www.w3.org/2000/svg">
<rect x="0.5" y="1.4187" width="103" height="55" rx="19.5" fill="url(#paint0_linear_2773_62)"/>
<rect x="6" y="6.9187" width="44" height="44" rx="16" fill="#0559FD"/>
<path d="M37.53 32.8487C37.37 32.5787 36.92 32.1587 35.8 32.3587C35.18 32.4687 34.55 32.5187 33.92 32.4887C31.59 32.3887 29.48 31.3187 28.01 29.6687C26.71 28.2187 25.91 26.3287 25.9 24.2887C25.9 23.1487 26.12 22.0487 26.57 21.0087C27.01 19.9987 26.7 19.4687 26.48 19.2487C26.25 19.0187 25.71 18.6987 24.65 19.1387C20.56 20.8587 18.03 24.9587 18.33 29.3487C18.63 33.4787 21.53 37.0087 25.37 38.3387C26.29 38.6587 27.26 38.8487 28.26 38.8887C28.42 38.8987 28.58 38.9087 28.74 38.9087C32.09 38.9087 35.23 37.3287 37.21 34.6387C37.88 33.7087 37.7 33.1187 37.53 32.8487Z" fill="white"/>
<path d="M76 36.1687C72 36.1687 68.75 32.9187 68.75 28.9187C68.75 24.9187 72 21.6687 76 21.6687C80 21.6687 83.25 24.9187 83.25 28.9187C83.25 32.9187 80 36.1687 76 36.1687ZM76 23.1687C72.83 23.1687 70.25 25.7487 70.25 28.9187C70.25 32.0887 72.83 34.6687 76 34.6687C79.17 34.6687 81.75 32.0887 81.75 28.9187C81.75 25.7487 79.17 23.1687 76 23.1687Z" fill="#7E848E"/>
<path d="M76 39.8787C75.45 39.8787 75 39.4687 75 38.9187V38.8387C75 38.2887 75.45 37.8387 76 37.8387C76.55 37.8387 77 38.2887 77 38.8387C77 39.3887 76.55 39.8787 76 39.8787ZM83.14 37.0587C82.88 37.0587 82.63 36.9587 82.43 36.7687L82.3 36.6387C81.91 36.2487 81.91 35.6187 82.3 35.2287C82.69 34.8387 83.32 34.8387 83.71 35.2287L83.84 35.3587C84.23 35.7487 84.23 36.3787 83.84 36.7687C83.65 36.9587 83.4 37.0587 83.14 37.0587ZM68.86 37.0587C68.6 37.0587 68.35 36.9587 68.15 36.7687C67.76 36.3787 67.76 35.7487 68.15 35.3587L68.28 35.2287C68.67 34.8387 69.3 34.8387 69.69 35.2287C70.08 35.6187 70.08 36.2487 69.69 36.6387L69.56 36.7687C69.37 36.9587 69.11 37.0587 68.86 37.0587ZM86 29.9187H85.92C85.37 29.9187 84.92 29.4687 84.92 28.9187C84.92 28.3687 85.37 27.9187 85.92 27.9187C86.47 27.9187 86.96 28.3687 86.96 28.9187C86.96 29.4687 86.55 29.9187 86 29.9187ZM66.08 29.9187H66C65.45 29.9187 65 29.4687 65 28.9187C65 28.3687 65.45 27.9187 66 27.9187C66.55 27.9187 67.04 28.3687 67.04 28.9187C67.04 29.4687 66.63 29.9187 66.08 29.9187ZM83.01 22.9087C82.75 22.9087 82.5 22.8087 82.3 22.6187C81.91 22.2287 81.91 21.5987 82.3 21.2087L82.43 21.0787C82.82 20.6887 83.45 20.6887 83.84 21.0787C84.23 21.4687 84.23 22.0987 83.84 22.4887L83.71 22.6187C83.52 22.8087 83.27 22.9087 83.01 22.9087ZM68.99 22.9087C68.73 22.9087 68.48 22.8087 68.28 22.6187L68.15 22.4787C67.76 22.0887 67.76 21.4587 68.15 21.0687C68.54 20.6787 69.17 20.6787 69.56 21.0687L69.69 21.1987C70.08 21.5887 70.08 22.2187 69.69 22.6087C69.5 22.8087 69.24 22.9087 68.99 22.9087ZM76 19.9587C75.45 19.9587 75 19.5487 75 18.9987V18.9187C75 18.3687 75.45 17.9187 76 17.9187C76.55 17.9187 77 18.3687 77 18.9187C77 19.4687 76.55 19.9587 76 19.9587Z" fill="#7E848E"/>
<rect x="0.5" y="1.4187" width="103" height="55" rx="19.5" stroke="url(#paint1_linear_2773_62)"/>
<defs>
<linearGradient id="paint0_linear_2773_62" x1="104" y1="0.918703" x2="88.0797" y2="65.7752" gradientUnits="userSpaceOnUse">
<stop stop-color="#020B1F"/>
<stop offset="1" stop-color="#0C132C"/>
</linearGradient>
<linearGradient id="paint1_linear_2773_62" x1="104" y1="0.918701" x2="86.4276" y2="66.1877" gradientUnits="userSpaceOnUse">
<stop stop-color="#182040"/>
<stop offset="1" stop-color="#182040" stop-opacity="0"/>
</linearGradient>
</defs>
</svg>
